<?xml version="1.0" encoding="UTF-8"?>
<svg id="Layer_1" xmlns="http://www.w3.org/2000/svg" version="1.1" viewBox="0 0 800 800">
  <!-- Generator: Adobe Illustrator 29.4.0, SVG Export Plug-In . SVG Version: 2.1.0 Build 152)  -->
  <path d="M485.3,24c3.1,0,6.2.4,9.3,1.3,12.6,3.5,20.6,13.9,32.5,30.6,12.1,16.9,27.2,38,53.6,48.6,14.6,5.8,25.5,12.9,31.7,20.5,6.3,7.7,7.9,16.1,5.4,27.2-2.7,11.8-10.3,24.3-21.4,35.2-10.9,10.6-24.4,18.9-37.2,22.8-8.5,2.6-17.9,3.9-27.9,3.9s-8.7-.2-13.2-.7c-3.9-.4-8.8-1.6-13.9-2.8-8.8-2.1-18.8-4.5-29.6-4.5s-16.4,1.6-23.6,4.6c-16.6,7.1-27.6,22.5-28.7,40.3-1,17.1,7.3,32.6,22.5,41.4,8.1,4.7,17,7.1,26.5,7.1,13.9,0,26.4-5.1,36.4-9.2,3.7-1.5,7.2-2.9,10.1-3.9,11.5-3.6,22.9-5.5,33.9-5.5,19.3,0,36.5,5.5,51.3,16.3,13.2,9.7,23.2,21.4,28.1,33,4.9,11.6,4.2,21.8-2,32.1-3.9,6.5-10,10.3-20.4,16.5-5.1,3-10.8,6.4-16.5,10.6-19.6,14.4-33.9,35.1-42.4,61.6-3.3,10.1-7.6,17.4-13,21.6-4,3.2-8.9,4.7-14.7,4.7-28.4,0-68.6-34.9-75.5-65.5-3.4-15.1-3-32.2,1.1-50.9.2-.7.3-1.5.5-2.2,1.9-8.8,4.4-19.7,3.7-31-1.2-21.3-12.4-33.2-21.6-39.4-7.5-5-16-7.7-24.8-7.7-10.2,0-20.3,3.7-28.4,10.4-7.8,6.4-13.4,15.4-15.9,25.2-5.2,20.6,2.4,39,8.5,53.7,2.2,5.4,4.3,10.5,5.3,14.6,4.1,16.6,4.2,32.7.2,48-4.1,15.4-12.1,29.1-23.9,41-11.7,11.8-25.7,18.5-38.2,18.5s-18.7-4.3-26.5-13.1c-.3-.3-.5-.6-.8-.9l-19.2-21.5,2.1-3.9-8.5-12.3c-11-15.9-30.4-24-47.4-31.1-6.6-2.8-16.5-6.9-19.2-9.3-11.2-10.1-14.7-21.2-11.1-35,3.2-12.4,12.4-26.2,25-37.8,12.4-11.4,26.9-19.5,39.7-22.4,6.8-1.5,14.1-2.3,21.7-2.3,6.7,0,13.9.6,21.1,1.8,2.9.5,6.2,1.3,9.8,2.1,7.8,1.9,16.7,4,26.5,4s16-1.6,23-4.6c10.5-4.6,18.4-11.2,23.4-19.7,5.1-8.7,6.8-19,4.7-29-4.7-22.5-26.7-39.5-51.3-39.5s-7.9.4-11.8,1.3c-10.6,2.3-20.1,5.2-29.3,8-15.4,4.7-28.7,8.7-42.2,8.7s-13.4-1-20.1-3.1c-12.1-3.7-25-11.1-35.3-20.2-10.6-9.3-17.8-19.9-20.3-29.7-4-15.7-.3-30,30.7-48.4,25.4-15.1,36.1-37.6,44.7-55.7,5.9-12.4,11-23.2,19.8-30.6,7.3-6.1,14.7-9.1,22.8-9.1,13.7,0,29.6,8.5,43.7,23.4,13.8,14.6,23.9,33.4,26.3,49.2,1,6.9-1.1,19-3.2,30.8-2.1,11.7-4.2,23.8-4.3,35.8-.2,17,3.8,30.5,12.3,41,12.4,15.5,25.7,18.7,34.6,18.7,13.5,0,26.1-7.5,34.6-20.5,11.3-17.5,13.6-41.2,5.6-59-9.4-20.9-21.9-61.3,0-96.5,11.2-18.1,30.5-37.5,51-37.5h0M485.3,0c-30.1,0-55.9,23.7-71.4,48.9-22.8,36.9-18.5,80.7-1.4,118.9,7.8,17.3-2.7,45.7-18.3,45.7s-10.4-2.8-15.9-9.7c-17.8-22.2,4.4-68.5.2-96.1-6.3-41.7-49.4-93-93.7-93-13,0-26,4.4-38.3,14.7-28.3,23.8-26.3,63.2-61.2,84-28.1,16.7-50.8,39-41.7,74.9,8,31.4,42,57.7,71.8,66.9,9.7,3,18.6,4.2,27.2,4.2,26.2,0,49-11.2,76.7-17.3,2.2-.5,4.4-.7,6.6-.7,24.4,0,41.9,29.9,13.6,42.2-4.4,1.9-9,2.7-13.5,2.7-10.8,0-21.7-4.1-32.3-5.9-8.3-1.4-16.7-2.1-25-2.1-9,0-18.1.9-26.9,2.9-53.5,12-118.7,87.7-64.4,136.4,13.5,12.1,50.8,18.8,62.9,36.3-10.6,19.2-22.6,46.1-29.8,79.1-13.7,62.6-12.1,159.7,72.9,267.1l33.9-26.9c-94.9-119.8-74.3-222.6-49.2-278.8,0,0,.1.1.2.2,13.1,14.9,28.7,21.3,44.5,21.3s39.6-9.9,55.2-25.6c29.9-30.1,40.2-70.7,30-111.7-4.5-18-18.6-37.5-13.8-56.7,2.6-10.3,11.4-17.5,21-17.5,3.8,0,7.7,1.1,11.4,3.6,16.4,11,10.9,31.8,7.4,47.6-4.4,20.1-5.6,41.2-1.1,61.3,9.1,40.6,58.1,84.3,98.9,84.3s40.6-12.1,50.6-43c6.4-19.7,16.8-37.2,33.8-49.7,15.4-11.3,32.8-16.7,43.2-34,22.2-36.8-1.9-74.4-32.4-96.8-19.7-14.4-42.3-21-65.5-21-13.7,0-27.6,2.3-41.2,6.6-12.3,3.9-25.9,12-39.2,12s-9.7-1.1-14.5-3.8c-16.3-9.4-12.8-31.8,3.6-38.8,4.6-2,9.4-2.7,14.2-2.7,13.6,0,27.9,5.8,40.9,7.2,5.2.6,10.5.9,15.7.9,11.8,0,23.6-1.5,34.9-5,33.1-10.1,67.1-41,75.1-75.6,9-39.7-18.9-62.4-51.6-75.4-41.1-16.3-46.9-68.2-88.5-79.9C495.8.7,490.5,0,485.3,0h0Z"/>
</svg>