<svg height="800" viewBox="0 0 512 512" width="800" xmlns="http://www.w3.org/2000/svg"><path d="m75.479 171.401c-5.606 0-10.156 4.55-10.156 10.156 0 5.616 4.55 10.156 10.156 10.156s10.156-4.54 10.156-10.156c0-5.606-4.55-10.156-10.156-10.156z"/><path d="m100.533 151.496c-13.924-11.852-37.475-6.307-53.613 12.644-7.251 8.521-11.882 18.565-13.04 28.284-1.29 10.907 2.031 20.627 9.1 26.649 4.946 4.215 11.1 6.226 17.712 6.226 11.994 0 25.481-6.652 35.891-18.87 7.261-8.521 11.893-18.565 13.04-28.274 1.29-10.918-2.021-20.637-9.09-26.659zm-9.059 24.506c-.721 6.083-3.93 12.857-8.805 18.575-7.993 9.384-21.591 15.894-27.837 10.582-3.199-2.732-3.128-7.81-2.793-10.593.721-6.083 3.93-12.847 8.805-18.575 6.002-7.048 15.183-12.482 22.028-12.482 2.255 0 4.255.589 5.799 1.909 3.199 2.723 3.128 7.801 2.803 10.584z"/><path d="m163.723 171.401c-5.606 0-10.156 4.55-10.156 10.156 0 5.616 4.55 10.156 10.156 10.156s10.156-4.54 10.156-10.156c-0-5.606-4.55-10.156-10.156-10.156z"/><path d="m205.322 192.424c-1.158-9.719-5.789-19.763-13.04-28.284-16.138-18.951-39.679-24.496-53.603-12.644-7.079 6.022-10.39 15.742-9.1 26.659 1.148 9.709 5.779 19.753 13.04 28.274 10.41 12.218 23.897 18.87 35.901 18.87 6.601 0 12.756-2.011 17.702-6.226 7.079-6.022 10.39-15.741 9.1-26.649zm-20.952 12.736c-6.246 5.312-19.845-1.198-27.837-10.582-4.875-5.718-8.084-12.492-8.795-18.575-.335-2.783-.406-7.861 2.793-10.582 1.544-1.32 3.544-1.909 5.799-1.909 6.845 0 16.026 5.433 22.028 12.482 4.875 5.728 8.084 12.492 8.805 18.575.335 2.781.406 7.859-2.793 10.591z"/><path d="m482.538 213.67c-.132-.223-.254-.447-.406-.66-5.941-25.644-28.548-53.745-60.996-74.666-25.644-16.544-53.146-26.477-75.976-27.553-.477-.071-118.814-.112-118.814-.112-2.976-24.455-18.9-42.584-38.684-42.584-10.887 0-20.931 5.606-28.183 15.386-12.441-5.86-26.05-8.917-39.882-8.917-13.822 0-27.431 3.057-39.872 8.917-7.251-9.78-17.285-15.386-28.193-15.386-21.977 0-39.192 22.373-39.192 50.932 0 9.74 2.112 19.174 6.043 27.269-12.046 16.899-18.383 36.297-18.383 56.487 0 24.659 9.75 48.667 27.451 67.608 16.351 17.488 38.785 29.929 63.515 35.322-.538 1.229-.843 2.58-.853 4.012l-.335 46.311c-.051 9.059-4.154 17.397-11.009 22.302-9.465 6.784-15.112 17.773-15.112 29.411 0 19.936 16.219 36.155 36.155 36.155 22.15 0 41.944-10.268 54.893-26.283 6.043 4.286 13.335 6.723 20.911 6.723 1.452 0 2.803-.081 4.083-.234 27.218-3.077 50.312-21.774 59.006-47.692 16.585 3.016 33.291 4.723 50.028 5.108-.051.752-.081 1.503-.081 2.255 0 19.936 16.219 36.145 36.145 36.145h39.578c5.687 12.512 18.301 21.236 32.915 21.236h54.192c17.661 0 32.032-14.371 32.032-32.032l.213-131.854c15.791-1.259 28.273-15.02 28.273-31.767 0-17.163-13.111-31.189-29.462-31.839zm-400.692 43.396c0-5.047-4.093-9.14-9.14-9.14s-9.14 4.093-9.14 9.14c0 7.658 2.681 14.706 7.14 20.271-10.816-5.312-20.495-12.35-28.416-20.82-14.371-15.386-21.977-33.961-21.977-53.735 0-17.732 6.256-34.764 18.088-49.256l4.794-5.87-4.255-6.256c-4.052-5.961-6.286-13.914-6.286-22.373 0-16.31 8.826-30.62 18.88-30.62 5.748 0 11.568 4.926 15.193 12.857l4.763 10.44 9.78-6.002c11.557-7.089 24.811-10.826 38.328-10.826 13.528 0 26.781 3.737 38.339 10.826l9.77 5.992 4.773-10.42c3.626-7.932 9.445-12.868 15.183-12.868 10.065 0 18.88 14.31 18.88 30.62 0 8.46-2.224 16.412-6.276 22.373l-4.255 6.256 4.794 5.87c11.832 14.503 18.088 31.534 18.088 49.256 0 19.774-7.597 38.359-21.977 53.735-8.115 8.683-18.098 15.874-29.249 21.216 4.662-5.616 7.454-12.817 7.454-20.667 0-5.047-4.093-9.14-9.14-9.14s-9.14 4.093-9.14 9.14c0 7.82-6.358 14.178-14.178 14.178-7.81 0-14.178-6.358-14.178-14.178v-4.722c1.899-.934 3.676-2.184 5.251-3.758l7.221-7.211c3.575-3.575 3.575-9.364 0-12.928-3.565-3.575-9.354-3.575-12.928 0l-7.211 7.221c-.67.66-1.757.66-2.427 0l-7.211-7.221c-3.575-3.575-9.364-3.575-12.928 0-3.575 3.565-3.575 9.354 0 12.928l7.221 7.211c1.432 1.442 3.037 2.6 4.733 3.514v4.966c0 7.82-6.358 14.178-14.178 14.178-7.815.001-14.183-6.357-14.183-14.177zm54.578 31.849c-3.148 6.256-9.607 10.572-17.082 10.572-7.465 0-13.934-4.316-17.072-10.572 6.632-1.3 12.553-4.621 17.072-9.303 4.53 4.682 10.44 8.003 17.082 9.303zm28.193 42.625c-1.32-.63-2.803-.995-4.367-.995-5.616 0-10.156 4.55-10.156 10.156v32.611c0 27.726-22.556 50.282-50.282 50.282-8.734 0-15.843-7.109-15.843-15.843 0-5.098 2.478-9.922 6.632-12.898 12.126-8.683 19.408-23.166 19.489-38.694l.284-39.476c2.874.711 5.88 1.087 8.968 1.087 10.674 0 20.312-4.499 27.137-11.7 18.727-3.808 36.206-11.649 50.8-22.688-3.727 18.859-9.262 37.343-16.564 55.258-5.423-2.214-10.796-4.58-16.097-7.109v.009zm12.756 72.401c-.538.061-9.75.65-12.238-3.91 3.382-8.247 5.271-17.265 5.271-26.72v-16.981c15.721 6.581 31.879 11.882 48.251 15.853-6.744 17.296-22.638 29.636-41.284 31.758zm55.705-49.317c-11.222-2.326-22.343-5.322-33.301-8.947 11.375-28.091 18.687-57.472 21.795-87.503 11.446-16.564 17.631-35.769 17.631-55.39 0-20.19-6.327-39.578-18.382-56.487 2.285-4.712 3.94-9.892 4.936-15.305h69.284c-15.975 48.992-13.731 101.935 6.388 149.231 12.35 29.026 30.864 54.669 53.969 75.316-4.926.975-16.503 2.732-16.879 2.783-35.142 4.975-70.596 3.736-105.441-3.698zm128.462 44.991h-36.744c-8.734 0-15.833-7.099-15.833-15.833 0-.823.081-1.635.203-2.427 10.562-.427 21.134-1.371 31.666-2.844.904-.051 24.303-4.052 35.109-6.784 1.026.711 2.041 1.412 3.077 2.092-9.211 5.423-15.833 14.807-17.478 25.796zm101.661 9.516c0 6.459-5.261 11.72-11.72 11.72h-54.192c-8.734 0-15.843-7.109-15.843-15.843 0-8.744 7.109-15.843 15.843-15.843h11.202c5.616 0 10.156-4.55 10.156-10.156 0-4.184-2.529-7.769-6.134-9.333-20.728-10.105-39.293-23.795-54.943-40.289-15.65-16.503-28.386-35.81-37.445-57.117-18.342-43.122-20.271-91.454-5.433-136.089.579-1.737.66-3.514.315-5.19h27.198c19.642.345 44.402 9.242 67.923 24.415 31.422 20.271 53.329 49.327 53.258 70.655-.002.619-.185 183.07-.185 183.07zm20.576-152.39.071-22.434c4.489 1.249 7.84 5.789 7.84 11.202 0 5.433-3.382 10.004-7.911 11.232z"/><path d="m391.531 293.11c-7.354-8.087-13.694-16.957-18.999-26.459-2.49-4.459-4.772-9.046-6.786-13.778-2.007-4.715-3.754-9.525-5.237-14.412s-2.7-9.85-3.648-14.871c-.632-3.347-1.144-6.719-1.535-10.112-.32-2.788-1.739-5.179-3.775-6.794s-4.689-2.453-7.477-2.133c-1.739.2-3.326.829-4.665 1.77-.536.376-1.032.803-1.483 1.271-.226.234-.44.479-.642.734-1.414 1.782-2.234 4.036-2.203 6.439.004.343.026.69.066 1.038.449 3.877 1.037 7.731 1.76 11.556 1.085 5.737 2.476 11.409 4.168 16.994s3.686 11.082 5.974 16.471c7.201 16.92 17.113 32.387 29.462 45.956 2.011 2.204 4.753 3.321 7.515 3.321 2.437 0 4.885-.873 6.835-2.651 1.554-1.413 2.568-3.2 3.029-5.101.768-3.167.002-6.649-2.359-9.239z"/><path d="m75.479 171.401c-5.606 0-10.156 4.55-10.156 10.156 0 5.616 4.55 10.156 10.156 10.156s10.156-4.54 10.156-10.156c0-5.606-4.55-10.156-10.156-10.156z"/><path d="m100.533 151.496c-13.924-11.852-37.475-6.307-53.613 12.644-7.251 8.521-11.882 18.565-13.04 28.284-1.29 10.907 2.031 20.627 9.1 26.649 4.946 4.215 11.1 6.226 17.712 6.226 11.994 0 25.481-6.652 35.891-18.87 7.261-8.521 11.893-18.565 13.04-28.274 1.29-10.918-2.021-20.637-9.09-26.659zm-9.059 24.506c-.721 6.083-3.93 12.857-8.805 18.575-7.993 9.384-21.591 15.894-27.837 10.582-3.199-2.732-3.128-7.81-2.793-10.593.721-6.083 3.93-12.847 8.805-18.575 6.002-7.048 15.183-12.482 22.028-12.482 2.255 0 4.255.589 5.799 1.909 3.199 2.723 3.128 7.801 2.803 10.584z"/><path d="m163.723 171.401c-5.606 0-10.156 4.55-10.156 10.156 0 5.616 4.55 10.156 10.156 10.156s10.156-4.54 10.156-10.156c-0-5.606-4.55-10.156-10.156-10.156z"/><path d="m205.322 192.424c-1.158-9.719-5.789-19.763-13.04-28.284-16.138-18.951-39.679-24.496-53.603-12.644-7.079 6.022-10.39 15.742-9.1 26.659 1.148 9.709 5.779 19.753 13.04 28.274 10.41 12.218 23.897 18.87 35.901 18.87 6.601 0 12.756-2.011 17.702-6.226 7.079-6.022 10.39-15.741 9.1-26.649zm-20.952 12.736c-6.246 5.312-19.845-1.198-27.837-10.582-4.875-5.718-8.084-12.492-8.795-18.575-.335-2.783-.406-7.861 2.793-10.582 1.544-1.32 3.544-1.909 5.799-1.909 6.845 0 16.026 5.433 22.028 12.482 4.875 5.728 8.084 12.492 8.805 18.575.335 2.781.406 7.859-2.793 10.591z"/><path d="m391.531 293.11c-10.806-11.882-19.479-25.42-25.786-40.238-5.352-12.573-8.856-25.826-10.42-39.395-.64-5.576-5.677-9.567-11.253-8.927-5.565.64-9.567 5.677-8.927 11.253 1.798 15.508 5.799 30.651 11.903 45.021 7.201 16.92 17.113 32.387 29.462 45.956 2.011 2.204 4.753 3.321 7.515 3.321 2.437 0 4.885-.873 6.835-2.651 4.144-3.768 4.449-10.197.671-14.34z"/><path d="m391.531 293.11c-10.806-11.882-19.479-25.42-25.786-40.238-5.352-12.573-8.856-25.826-10.42-39.395-.64-5.576-5.677-9.567-11.253-8.927-5.565.64-9.567 5.677-8.927 11.253 1.798 15.508 5.799 30.651 11.903 45.021 7.201 16.92 17.113 32.387 29.462 45.956 2.011 2.204 4.753 3.321 7.515 3.321 2.437 0 4.885-.873 6.835-2.651 4.144-3.768 4.449-10.197.671-14.34z"/><path d="m75.479 171.401c-5.606 0-10.156 4.55-10.156 10.156 0 5.616 4.55 10.156 10.156 10.156s10.156-4.54 10.156-10.156c0-5.606-4.55-10.156-10.156-10.156z"/><path d="m75.479 171.401c-5.606 0-10.156 4.55-10.156 10.156 0 5.616 4.55 10.156 10.156 10.156s10.156-4.54 10.156-10.156c0-5.606-4.55-10.156-10.156-10.156z"/><path d="m100.533 151.496c-13.924-11.852-37.475-6.307-53.613 12.644-7.251 8.521-11.882 18.565-13.04 28.284-1.29 10.907 2.031 20.627 9.1 26.649 4.946 4.215 11.1 6.226 17.712 6.226 11.994 0 25.481-6.652 35.891-18.87 7.261-8.521 11.893-18.565 13.04-28.274 1.29-10.918-2.021-20.637-9.09-26.659zm-9.059 24.506c-.721 6.083-3.93 12.857-8.805 18.575-7.993 9.384-21.591 15.894-27.837 10.582-3.199-2.732-3.128-7.81-2.793-10.593.721-6.083 3.93-12.847 8.805-18.575 6.002-7.048 15.183-12.482 22.028-12.482 2.255 0 4.255.589 5.799 1.909 3.199 2.723 3.128 7.801 2.803 10.584z"/><path d="m75.479 171.401c-5.606 0-10.156 4.55-10.156 10.156 0 5.616 4.55 10.156 10.156 10.156s10.156-4.54 10.156-10.156c0-5.606-4.55-10.156-10.156-10.156z"/><path d="m163.723 171.401c-5.606 0-10.156 4.55-10.156 10.156 0 5.616 4.55 10.156 10.156 10.156s10.156-4.54 10.156-10.156c-0-5.606-4.55-10.156-10.156-10.156z"/><path d="m163.723 171.401c-5.606 0-10.156 4.55-10.156 10.156 0 5.616 4.55 10.156 10.156 10.156s10.156-4.54 10.156-10.156c-0-5.606-4.55-10.156-10.156-10.156z"/><path d="m205.322 192.424c-1.158-9.719-5.789-19.763-13.04-28.284-16.138-18.951-39.679-24.496-53.603-12.644-7.079 6.022-10.39 15.742-9.1 26.659 1.148 9.709 5.779 19.753 13.04 28.274 10.41 12.218 23.897 18.87 35.901 18.87 6.601 0 12.756-2.011 17.702-6.226 7.079-6.022 10.39-15.741 9.1-26.649zm-20.952 12.736c-6.246 5.312-19.845-1.198-27.837-10.582-4.875-5.718-8.084-12.492-8.795-18.575-.335-2.783-.406-7.861 2.793-10.582 1.544-1.32 3.544-1.909 5.799-1.909 6.845 0 16.026 5.433 22.028 12.482 4.875 5.728 8.084 12.492 8.805 18.575.335 2.781.406 7.859-2.793 10.591z"/><path d="m163.723 171.401c-5.606 0-10.156 4.55-10.156 10.156 0 5.616 4.55 10.156 10.156 10.156s10.156-4.54 10.156-10.156c-0-5.606-4.55-10.156-10.156-10.156z"/></svg>