<svg fill="none" height="800" viewBox="0 0 24 24" width="800" xmlns="http://www.w3.org/2000/svg"><g fill="#000"><path d="m10.9 11.77c-.1057.0001-.2102-.0221-.3067-.0651-.0965-.0431-.1828-.1061-.2533-.1849-.0696-.0803-.1215-.1743-.1525-.2759-.0311-.1016-.0404-.2086-.0275-.3141 0-.09 1.23-9.13999 9.22-9.13999.1825.00111.3584.06876.4946.19026.1363.1215.2235.28852.2454.46974.2365 2.3548-.4641 4.70797-1.95 6.55-1.6 1.84999-4.05 2.76999-7.27 2.76999zm7.76-8.44999c-4.81.42-6.39 5-6.85 6.91999.9669-.0042 1.9233-.1999 2.8141-.57576.8908-.37588 1.6983-.92452 2.3759-1.61423 1.0966-1.33001 1.6849-3.00639 1.66-4.73z"/><path d="m10.9 11.76h-.09c-2.41-.3-7-2.16999-7-7.05999.00082-.18365.06812-.3608.18945-.49868.12133-.13787.28848-.22715.47055-.25131 1.82444-.1847 3.64851.3539 5.08 1.49999.7352.71483 1.3043 1.58243 1.6672 2.54147s.5106 1.9861.4328 3.00852c.0001.1057-.0221.2102-.0651.3067-.0431.0965-.1061.1829-.1849.2533-.1376.1239-.3149.1948-.5.2zm-5.52-6.33998c.39 3.12 3.25 4.27 4.73 4.65998-.0422-1.32667-.59789-2.58514-1.55-3.50998-.89996-.73103-2.02064-1.1363-3.18-1.15z"/><path d="m10.9 15.9c-.1989 0-.3897-.079-.5303-.2197-.1407-.1406-.2197-.3314-.2197-.5303v-4.15c0-.1989.079-.3897.2197-.5303.1406-.1407.3314-.2197.5303-.2197s.3897.079.5303.2197c.1407.1406.2197.3314.2197.5303v4.13c.0041.1005-.0124.2008-.0484.2948-.0359.0939-.0907.1795-.1609.2516s-.1543.1291-.2473.1675c-.093.0385-.1928.0575-.2934.0561z"/><path d="m13.5 22.21h-4.8c-.98505-.0157-1.92458-.4174-2.61652-1.1187-.69193-.7013-1.08099-1.6461-1.08348-2.6313v-3.31c0-.1989.07902-.3897.21967-.5303.14065-.1407.33142-.2197.53033-.2197h10.75c.1989 0 .3897.079.5303.2197.1407.1406.2197.3314.2197.5303v3.31c-.0026.9937-.3986 1.946-1.1013 2.6487s-1.6549 1.0987-2.6487 1.1013zm-7-6.31v2.56c-.00015.5882.23003 1.153.64123 1.5736.41121.4205.97074.6633 1.55877.6764h4.8c.5967 0 1.169-.2371 1.591-.659.4219-.422.659-.9943.659-1.591v-2.56z"/></g></svg>