<svg height="800" viewBox="0 0 512 512" width="800" xmlns="http://www.w3.org/2000/svg"><path d="m440.781 203.438c1.188-6.375 1.781-12.781 1.781-19.125 0-45.875-29.094-85.984-71.813-100.625-15.89-49.719-61.796-83.688-114.749-83.688s-98.875 33.969-114.75 83.688c-42.734 14.625-71.813 54.75-71.813 100.625 0 6.344.594 12.75 1.766 19.125-24.813 22.813-38.844 54.547-38.844 88.531 0 66.516 54.109 120.625 120.625 120.625 13.219 0 26.125-2.125 38.531-6.313 14.422 10.219 31.078 16.828 48.484 19.359v86.36h8 16 8v-86.359c17.406-2.531 34.063-9.141 48.484-19.359 12.391 4.188 25.313 6.313 38.531 6.313 66.516 0 120.625-54.109 120.625-120.625.002-33.986-14.045-65.72-38.858-88.532zm-81.765 177.156c-12.094 0-23.828-2.406-34.922-7.156l-9.094-3.907-7.563 6.406c-12.313 10.438-27.516 16.844-43.438 18.469v-41.875l62.547-71.469-12.046-10.531-50.5 57.719v-58.938l50.438-57.656-12.047-10.531-38.391 43.875v-90.344h-16v90.359l-38.406-43.891-12.047 10.531 50.453 57.658v58.938l-50.5-57.719-12.047 10.531 62.547 71.468v41.875c-15.938-1.625-31.125-8.031-43.453-18.469l-7.547-6.406-9.109 3.906c-11.078 4.75-22.828 7.156-34.906 7.156-48.875 0-88.625-39.75-88.625-88.625 0-27.516 12.563-53.031 34.453-70l8.563-6.656-2.984-10.406c-1.969-6.844-2.953-13.781-2.953-20.594 0-34.344 23.297-64.063 56.656-72.266l9.5-2.344 2.25-9.516c9.499-40.155 44.921-68.186 86.155-68.186s76.656 28.031 86.141 68.188l2.25 9.516 9.5 2.344c33.359 8.203 56.672 37.922 56.672 72.266 0 6.813-1 13.75-2.969 20.594l-2.984 10.406 8.563 6.656c21.906 16.969 34.469 42.484 34.469 70-.001 48.874-39.767 88.624-88.626 88.624z"/></svg>